<svg width="15" height="11" viewBox="0 0 15 11" fill="none" xmlns="http://www.w3.org/2000/svg">
<path d="M13.4805 4.68572V2.65036C13.4805 1.44233 12.5885 0.453934 11.4984 0.453934H8.85551C8.34676 0.453934 7.88426 0.673577 7.53408 1.02501C7.18391 0.673577 6.72141 0.453934 6.21266 0.453934H3.5698C2.47962 0.453934 1.58766 1.44233 1.58766 2.65036V4.68572C1.18462 5.0884 0.926941 5.66679 0.926941 6.31108V9.97179C0.926941 10.3745 1.22426 10.7039 1.58766 10.7039C1.95105 10.7039 2.24837 10.3745 2.24837 9.97179V9.23965H12.8198V9.97179C12.8198 10.3745 13.1171 10.7039 13.4805 10.7039C13.8439 10.7039 14.1412 10.3745 14.1412 9.97179V6.31108C14.1412 5.66679 13.8835 5.0884 13.4805 4.68572ZM8.85551 1.91822H11.4984C11.8618 1.91822 12.1591 2.24768 12.1591 2.65036V4.11465H8.1948V2.65036C8.1948 2.24768 8.49212 1.91822 8.85551 1.91822ZM2.90908 2.65036C2.90908 2.24768 3.20641 1.91822 3.5698 1.91822H6.21266C6.57605 1.91822 6.87337 2.24768 6.87337 2.65036V4.11465H2.90908V2.65036ZM2.24837 7.77536V6.31108C2.24837 5.9084 2.54569 5.57893 2.90908 5.57893H12.1591C12.5225 5.57893 12.8198 5.9084 12.8198 6.31108V7.77536H2.24837Z" fill="#989898"/>
</svg>
