<svg width="76" height="75" viewBox="0 0 76 75" fill="none" xmlns="http://www.w3.org/2000/svg">
<g clip-path="url(#clip0_742_992)">
<path d="M26.374 15.9469H19.8025C18.0596 15.9469 16.3881 16.6393 15.1557 17.8717C13.9233 19.1041 13.231 20.7756 13.231 22.5184V61.9477C13.231 63.6906 13.9233 65.3621 15.1557 66.5945C16.3881 67.8269 18.0596 68.5193 19.8025 68.5193H38.5215M59.2318 45.5189V58.662H72.3749M59.2318 35.6615V22.5184C59.2318 20.7756 58.5394 19.1041 57.307 17.8717C56.0746 16.6393 54.4031 15.9469 52.6602 15.9469H46.0887" stroke="#2549D3" stroke-width="6" stroke-linecap="round" stroke-linejoin="round"/>
<path d="M39.5179 9.375H32.9463C29.317 9.375 26.3748 12.3172 26.3748 15.9465C26.3748 19.5759 29.317 22.5181 32.9463 22.5181H39.5179C43.1472 22.5181 46.0894 19.5759 46.0894 15.9465C46.0894 12.3172 43.1472 9.375 39.5179 9.375Z" stroke="#2549D3" stroke-width="6" stroke-linecap="round" stroke-linejoin="round"/>
<path d="M59.2317 71.8048C66.4904 71.8048 72.3748 65.9204 72.3748 58.6617C72.3748 51.403 66.4904 45.5186 59.2317 45.5186C51.973 45.5186 46.0886 51.403 46.0886 58.6617C46.0886 65.9204 51.973 71.8048 59.2317 71.8048Z" stroke="#2549D3" stroke-width="6" stroke-linecap="round" stroke-linejoin="round"/>
<path d="M26.3748 35.6608H39.5179M26.3748 48.8039H36.2321" stroke="#2549D3" stroke-width="6" stroke-linecap="round" stroke-linejoin="round"/>
</g>
<defs>
<clipPath id="clip0_742_992">
<rect width="75" height="75" fill="white" transform="translate(0.730957)"/>
</clipPath>
</defs>
</svg>
