<svg width="16" height="19" viewBox="0 0 16 19" fill="none" xmlns="http://www.w3.org/2000/svg">
<path d="M14.7712 8.11116C14.7712 13.2484 8.16622 17.6517 8.16622 17.6517C8.16622 17.6517 1.56122 13.2484 1.56122 8.11116C1.56122 6.3594 2.2571 4.67939 3.49578 3.44072C4.73446 2.20204 6.41446 1.50616 8.16622 1.50616C9.91797 1.50616 11.598 2.20204 12.8367 3.44072C14.0753 4.67939 14.7712 6.3594 14.7712 8.11116Z" stroke="#989898" stroke-width="1.5" stroke-linecap="round" stroke-linejoin="round"/>
<path d="M8.16621 10.3128C9.38215 10.3128 10.3679 9.32711 10.3679 8.11116C10.3679 6.89521 9.38215 5.90949 8.16621 5.90949C6.95026 5.90949 5.96454 6.89521 5.96454 8.11116C5.96454 9.32711 6.95026 10.3128 8.16621 10.3128Z" stroke="#989898" stroke-width="1.5" stroke-linecap="round" stroke-linejoin="round"/>
</svg>
