<svg width="40" height="40" viewBox="0 0 40 40" fill="none" xmlns="http://www.w3.org/2000/svg">
<rect width="40" height="40" rx="3" fill="#08195A"/>
<path d="M35.5925 28.25V11.75C35.5925 10.2283 34.3642 9 32.8425 9H7.1575C5.63583 9 4.4075 10.2283 4.4075 11.75V28.25C4.4075 29.7717 5.63583 31 7.1575 31H32.8425C34.3642 31 35.5925 29.7717 35.5925 28.25ZM33.1908 11.5483C33.7958 12.1533 33.4658 12.7767 33.1358 13.0883L25.6925 19.9083L32.8425 27.3517C33.0625 27.6083 33.2092 28.0117 32.9525 28.2867C32.7142 28.58 32.1642 28.5617 31.9258 28.3783L23.9142 21.54L19.9908 25.115L16.0858 21.54L8.07417 28.3783C7.83583 28.5617 7.28583 28.58 7.0475 28.2867C6.79083 28.0117 6.9375 27.6083 7.1575 27.3517L14.3075 19.9083L6.86417 13.0883C6.53417 12.7767 6.20417 12.1533 6.80917 11.5483C7.41417 10.9433 8.0375 11.2367 8.55083 11.6767L19.9908 20.9167L31.4492 11.6767C31.9625 11.2367 32.5858 10.9433 33.1908 11.5483V11.5483Z" fill="white"/>
</svg>
