<svg width="40" height="40" viewBox="0 0 40 40" fill="none" xmlns="http://www.w3.org/2000/svg">
<g clip-path="url(#clip0_743_1792)">
<rect width="40" height="40" rx="3" fill="#08195A"/>
<path d="M19.9998 3.33325C24.5282 3.33325 25.0932 3.34992 26.8698 3.43325C28.6448 3.51659 29.8532 3.79492 30.9165 4.20825C32.0165 4.63159 32.9432 5.20492 33.8698 6.12992C34.7173 6.96308 35.3731 7.9709 35.7915 9.08325C36.2032 10.1449 36.4832 11.3549 36.5665 13.1299C36.6448 14.9066 36.6665 15.4716 36.6665 19.9999C36.6665 24.5283 36.6498 25.0933 36.5665 26.8699C36.4832 28.6449 36.2032 29.8533 35.7915 30.9166C35.3743 32.0296 34.7184 33.0376 33.8698 33.8699C33.0364 34.7171 32.0287 35.3728 30.9165 35.7916C29.8548 36.2033 28.6448 36.4833 26.8698 36.5666C25.0932 36.6449 24.5282 36.6666 19.9998 36.6666C15.4715 36.6666 14.9065 36.6499 13.1298 36.5666C11.3548 36.4833 10.1465 36.2033 9.08316 35.7916C7.97037 35.374 6.96237 34.7182 6.12983 33.8699C5.28217 33.0369 4.62638 32.029 4.20816 30.9166C3.79483 29.8549 3.51649 28.6449 3.43316 26.8699C3.35483 25.0933 3.33316 24.5283 3.33316 19.9999C3.33316 15.4716 3.34983 14.9066 3.43316 13.1299C3.51649 11.3533 3.79483 10.1466 4.20816 9.08325C4.62522 7.97022 5.28117 6.96212 6.12983 6.12992C6.96261 5.28197 7.97054 4.62613 9.08316 4.20825C10.1465 3.79492 11.3532 3.51659 13.1298 3.43325C14.9065 3.35492 15.4715 3.33325 19.9998 3.33325ZM19.9998 11.6666C17.7897 11.6666 15.6701 12.5446 14.1073 14.1074C12.5445 15.6702 11.6665 17.7898 11.6665 19.9999C11.6665 22.2101 12.5445 24.3297 14.1073 25.8925C15.6701 27.4553 17.7897 28.3333 19.9998 28.3333C22.21 28.3333 24.3296 27.4553 25.8924 25.8925C27.4552 24.3297 28.3332 22.2101 28.3332 19.9999C28.3332 17.7898 27.4552 15.6702 25.8924 14.1074C24.3296 12.5446 22.21 11.6666 19.9998 11.6666ZM30.8332 11.2499C30.8332 10.6974 30.6137 10.1675 30.223 9.77678C29.8323 9.38608 29.3024 9.16659 28.7498 9.16659C28.1973 9.16659 27.6674 9.38608 27.2767 9.77678C26.886 10.1675 26.6665 10.6974 26.6665 11.2499C26.6665 11.8025 26.886 12.3324 27.2767 12.7231C27.6674 13.1138 28.1973 13.3333 28.7498 13.3333C29.3024 13.3333 29.8323 13.1138 30.223 12.7231C30.6137 12.3324 30.8332 11.8025 30.8332 11.2499ZM19.9998 14.9999C21.3259 14.9999 22.5977 15.5267 23.5354 16.4644C24.473 17.4021 24.9998 18.6738 24.9998 19.9999C24.9998 21.326 24.473 22.5978 23.5354 23.5355C22.5977 24.4731 21.3259 24.9999 19.9998 24.9999C18.6737 24.9999 17.402 24.4731 16.4643 23.5355C15.5266 22.5978 14.9998 21.326 14.9998 19.9999C14.9998 18.6738 15.5266 17.4021 16.4643 16.4644C17.402 15.5267 18.6737 14.9999 19.9998 14.9999Z" fill="white"/>
</g>
<defs>
<clipPath id="clip0_743_1792">
<rect width="40" height="40" rx="3" fill="white"/>
</clipPath>
</defs>
</svg>
