<svg width="40" height="40" viewBox="0 0 40 40" fill="none" xmlns="http://www.w3.org/2000/svg">
<g clip-path="url(#clip0_743_1795)">
<rect width="40" height="40" rx="3" fill="#08195A"/>
<path d="M36.937 9.42655C35.6646 9.98937 34.3152 10.359 32.9336 10.5232C34.3899 9.65227 35.4798 8.28157 36.0003 6.66654C34.6336 7.47988 33.1353 8.04988 31.5736 8.35821C30.5246 7.23584 29.1342 6.49148 27.6186 6.24085C26.1029 5.99022 24.5469 6.24736 23.1924 6.9723C21.838 7.69724 20.761 8.84935 20.1288 10.2495C19.4967 11.6497 19.3449 13.2195 19.697 14.7149C16.9255 14.576 14.2142 13.8558 11.7391 12.601C9.26404 11.3462 7.08051 9.58496 5.3303 7.43154C4.71079 8.49563 4.38523 9.70526 4.38697 10.9365C4.38697 13.3532 5.61697 15.4882 7.48697 16.7382C6.38032 16.7034 5.29802 16.4045 4.3303 15.8665V15.9532C4.33064 17.5627 4.88758 19.1226 5.90671 20.3683C6.92585 21.6141 8.34444 22.469 9.92197 22.7882C8.89466 23.0666 7.81748 23.1076 6.77197 22.9082C7.21675 24.2936 8.08365 25.5052 9.25129 26.3734C10.4189 27.2416 11.8288 27.7229 13.2836 27.7499C11.8378 28.8854 10.1823 29.7249 8.41177 30.2202C6.64128 30.7155 4.79051 30.857 2.9653 30.6366C6.15146 32.6856 9.86046 33.7734 13.6486 33.7699C26.4703 33.7699 33.482 23.1482 33.482 13.9365C33.482 13.6365 33.4736 13.3332 33.4603 13.0365C34.8251 12.0502 36.003 10.8282 36.9386 9.42821L36.937 9.42655Z" fill="url(#paint0_linear_743_1795)"/>
</g>
<defs>
<linearGradient id="paint0_linear_743_1795" x1="2.9653" y1="6.14746" x2="34.7582" y2="36.0854" gradientUnits="userSpaceOnUse">
<stop stop-color="white"/>
<stop offset="1" stop-color="white"/>
</linearGradient>
<clipPath id="clip0_743_1795">
<rect width="40" height="40" rx="3" fill="white"/>
</clipPath>
</defs>
</svg>
