<svg width="61" height="55" viewBox="0 0 61 55" fill="none" xmlns="http://www.w3.org/2000/svg">
<path fill-rule="evenodd" clip-rule="evenodd" d="M57.0547 30.8945C58.8316 30.8945 60.3993 29.3799 60.3993 27.4463C60.5143 26.4795 60.0858 25.6201 59.2496 24.8682L32.566 0.753457C31.9285 0.215273 31.0923 0 30.3607 0C29.6291 0 28.7929 0.107637 28.0613 0.861094L1.26376 24.8682C0.531503 25.6201 0.217529 26.4795 0.217529 27.4463C0.217529 29.3799 1.68288 30.8945 3.56735 30.8945H6.91613V48.125C6.91613 51.917 9.91163 55 13.6064 55H47.0941C50.7941 55 53.7938 51.9062 53.7833 48.0928L53.7598 42.5725C52.1452 45.6078 49.0098 47.6666 45.4067 47.6666C42.7231 47.6666 40.299 46.5246 38.5694 44.6875H20.2851C19.3653 44.6875 18.6128 43.9141 18.6128 42.9688C18.6128 38.2207 22.3546 34.375 26.9743 34.375H33.6635C34.6096 34.375 35.519 34.5363 36.3669 34.8337C37.6152 30.9298 41.1908 28.1111 45.4067 28.1111C48.9802 28.1111 52.0935 30.1361 53.7197 33.1305L53.7101 30.8945H57.0547ZM23.6297 24.0625C23.6297 20.2705 26.6294 17.1875 30.3189 17.1875C34.0084 17.1875 37.0081 20.2705 37.0081 24.0625C37.0081 27.8545 34.0084 30.9375 30.3189 30.9375C26.6294 30.9375 23.6297 27.8545 23.6297 24.0625ZM49.7004 35.9299C49.6642 36.0424 49.6064 36.1463 49.5304 36.2355L45.2061 41.5689C45.1292 41.6637 45.0339 41.741 44.9262 41.7959C44.8186 41.8508 44.701 41.8821 44.581 41.8877C44.461 41.8933 44.3412 41.8731 44.2292 41.8285C44.1171 41.7838 44.0154 41.7157 43.9304 41.6284L41.3358 38.9618C41.1783 38.7941 41.0911 38.5696 41.0931 38.3365C41.0951 38.1034 41.186 37.8805 41.3464 37.7157C41.5067 37.5509 41.7236 37.4574 41.9504 37.4554C42.1772 37.4534 42.3956 37.5429 42.5587 37.7049L44.4831 39.6835L48.202 35.0978C48.2737 35.0049 48.3627 34.9277 48.4638 34.8708C48.565 34.8138 48.6761 34.7782 48.7909 34.766C48.9056 34.7539 49.0215 34.7654 49.1318 34.8C49.2421 34.8346 49.3446 34.8915 49.4332 34.9674C49.5218 35.0433 49.5947 35.1366 49.6477 35.2419C49.7007 35.3471 49.7326 35.4622 49.7417 35.5804C49.7507 35.6986 49.7367 35.8174 49.7004 35.9299Z" fill="#2549D3"/>
</svg>
