<svg width="61" height="55" viewBox="0 0 61 55" fill="none" xmlns="http://www.w3.org/2000/svg">
<g clip-path="url(#clip0_742_1126)">
<path d="M60.9101 27.4463C60.9101 29.3799 59.3424 30.8945 57.5656 30.8945H54.2212L54.2943 48.0928C54.3048 51.9062 51.3052 55 47.6054 55H14.1192C10.4246 55 7.42925 51.917 7.42925 48.125V30.8945H4.08063C2.19624 30.8945 0.730957 29.3799 0.730957 27.4463C0.730957 26.4795 1.04492 25.6201 1.77714 24.8682L28.5735 0.861094C29.3051 0.107637 30.1412 0 30.8728 0C31.6044 0 32.4405 0.215273 33.078 0.753457L59.7604 24.8682C60.5965 25.6201 61.025 26.4795 60.9101 27.4463ZM30.831 17.1875C27.1416 17.1875 24.1421 20.2705 24.1421 24.0625C24.1421 27.8545 27.1416 30.9375 30.831 30.9375C34.5203 30.9375 37.5199 27.8545 37.5199 24.0625C37.5199 20.2705 34.5203 17.1875 30.831 17.1875ZM27.4865 34.375C22.867 34.375 19.1254 38.2207 19.1254 42.9688C19.1254 43.9141 19.8779 44.6875 20.7976 44.6875H40.8643C41.784 44.6875 42.5365 43.9141 42.5365 42.9688C42.5365 38.2207 38.7949 34.375 34.1754 34.375H27.4865Z" fill="#2549D3"/>
</g>
<defs>
<clipPath id="clip0_742_1126">
<rect width="60.2" height="55" fill="white" transform="translate(0.730957)"/>
</clipPath>
</defs>
</svg>
