<svg width="25" height="25" viewBox="0 0 25 25" fill="none" xmlns="http://www.w3.org/2000/svg">
<g clip-path="url(#clip0_742_918)">
<path d="M12.4999 2.08325C15.3301 2.08325 15.6833 2.09367 16.7937 2.14575C17.903 2.19784 18.6583 2.37179 19.3228 2.63013C20.0103 2.89471 20.5895 3.25304 21.1687 3.83117C21.6983 4.35189 22.1082 4.98178 22.3697 5.677C22.627 6.34054 22.802 7.09679 22.8541 8.20617C22.903 9.31658 22.9166 9.66971 22.9166 12.4999C22.9166 15.3301 22.9062 15.6833 22.8541 16.7937C22.802 17.903 22.627 18.6583 22.3697 19.3228C22.109 20.0184 21.699 20.6485 21.1687 21.1687C20.6478 21.6982 20.0179 22.108 19.3228 22.3697C18.6593 22.627 17.903 22.802 16.7937 22.8541C15.6833 22.903 15.3301 22.9166 12.4999 22.9166C9.66971 22.9166 9.31658 22.9062 8.20617 22.8541C7.09679 22.802 6.34159 22.627 5.677 22.3697C4.98151 22.1087 4.35151 21.6988 3.83117 21.1687C3.30138 20.648 2.89151 20.0181 2.63013 19.3228C2.37179 18.6593 2.19784 17.903 2.14575 16.7937C2.09679 15.6833 2.08325 15.3301 2.08325 12.4999C2.08325 9.66971 2.09367 9.31658 2.14575 8.20617C2.19784 7.09575 2.37179 6.34159 2.63013 5.677C2.89079 4.98136 3.30076 4.35129 3.83117 3.83117C4.35166 3.3012 4.98161 2.8913 5.677 2.63013C6.34159 2.37179 7.09575 2.19784 8.20617 2.14575C9.31658 2.09679 9.66971 2.08325 12.4999 2.08325ZM12.4999 7.29158C11.1186 7.29158 9.79382 7.84032 8.81707 8.81707C7.84032 9.79382 7.29158 11.1186 7.29158 12.4999C7.29158 13.8813 7.84032 15.206 8.81707 16.1828C9.79382 17.1595 11.1186 17.7083 12.4999 17.7083C13.8813 17.7083 15.206 17.1595 16.1828 16.1828C17.1595 15.206 17.7083 13.8813 17.7083 12.4999C17.7083 11.1186 17.1595 9.79382 16.1828 8.81707C15.206 7.84032 13.8813 7.29158 12.4999 7.29158ZM19.2708 7.03117C19.2708 6.68583 19.1336 6.35464 18.8894 6.11046C18.6452 5.86627 18.314 5.72909 17.9687 5.72909C17.6233 5.72909 17.2921 5.86627 17.048 6.11046C16.8038 6.35464 16.6666 6.68583 16.6666 7.03117C16.6666 7.3765 16.8038 7.70769 17.048 7.95188C17.2921 8.19607 17.6233 8.33325 17.9687 8.33325C18.314 8.33325 18.6452 8.19607 18.8894 7.95188C19.1336 7.70769 19.2708 7.3765 19.2708 7.03117ZM12.4999 9.37492C13.3287 9.37492 14.1236 9.70416 14.7096 10.2902C15.2957 10.8763 15.6249 11.6711 15.6249 12.4999C15.6249 13.3287 15.2957 14.1236 14.7096 14.7096C14.1236 15.2957 13.3287 15.6249 12.4999 15.6249C11.6711 15.6249 10.8763 15.2957 10.2902 14.7096C9.70416 14.1236 9.37492 13.3287 9.37492 12.4999C9.37492 11.6711 9.70416 10.8763 10.2902 10.2902C10.8763 9.70416 11.6711 9.37492 12.4999 9.37492Z" fill="url(#paint0_linear_742_918)"/>
</g>
<defs>
<linearGradient id="paint0_linear_742_918" x1="2.08325" y1="2.08325" x2="25.2734" y2="19.8382" gradientUnits="userSpaceOnUse">
<stop stop-color="white"/>
<stop offset="1" stop-color="#BFBFBF"/>
</linearGradient>
<clipPath id="clip0_742_918">
<rect width="25" height="25" fill="white"/>
</clipPath>
</defs>
</svg>
