<svg width="20" height="21" viewBox="0 0 20 21" fill="none" xmlns="http://www.w3.org/2000/svg">
<path d="M15.9167 9.5H14.8333V6.5C14.8333 4.3 12.8833 2.5 10.5 2.5C8.11667 2.5 6.16667 4.3 6.16667 6.5V9.5H5.08333C4.54167 9.5 4 10 4 10.5V17.5C4 18 4.54167 18.5 5.08333 18.5H15.9167C16.4583 18.5 17 18 17 17.5V10.5C17 10 16.4583 9.5 15.9167 9.5ZM11.5833 16.5H9.41667L9.85 14.3C9.30833 14.1 8.875 13.5 8.875 13C8.875 12.2 9.63333 11.5 10.5 11.5C11.3667 11.5 12.125 12.2 12.125 13C12.125 13.6 11.8 14.1 11.15 14.3L11.5833 16.5ZM12.6667 9.5H8.33333V6.5C8.33333 5.4 9.30833 4.5 10.5 4.5C11.6917 4.5 12.6667 5.4 12.6667 6.5V9.5Z" fill="#2549D3"/>
</svg>
