<svg width="16" height="14" viewBox="0 0 16 14" fill="none" xmlns="http://www.w3.org/2000/svg">
<path d="M0.926941 8.99558H14.3436M2.84361 12.8289V2.33709C2.84354 2.1141 2.91754 1.89742 3.05398 1.72105C3.19042 1.54469 3.38158 1.41864 3.59743 1.36271C3.81328 1.30677 4.0416 1.32411 4.24652 1.41201C4.45145 1.49991 4.62137 1.65339 4.72961 1.84833L10.5409 12.3095C10.6492 12.5045 10.8191 12.6579 11.024 12.7458C11.229 12.8337 11.4573 12.8511 11.6731 12.7951C11.889 12.7392 12.0801 12.6131 12.2166 12.4368C12.353 12.2604 12.427 12.0437 12.4269 11.8208V1.32892L2.84361 12.8289ZM0.926941 5.16225H14.3436H0.926941Z" stroke="#989898" stroke-width="1.75" stroke-linecap="round" stroke-linejoin="round"/>
</svg>
