<svg width="14" height="11" viewBox="0 0 14 11" fill="none" xmlns="http://www.w3.org/2000/svg">
<path d="M6.13059 10.5327C6.13059 10.5327 5.30496 10.5327 5.30496 9.70706C5.30496 8.88143 6.13059 6.40456 9.43309 6.40456C12.7356 6.40456 13.5612 8.88143 13.5612 9.70706C13.5612 10.5327 12.7356 10.5327 12.7356 10.5327H6.13059ZM9.43309 5.57893C10.09 5.57893 10.72 5.31798 11.1845 4.85347C11.649 4.38897 11.91 3.75897 11.91 3.10206C11.91 2.44515 11.649 1.81515 11.1845 1.35064C10.72 0.886139 10.09 0.625183 9.43309 0.625183C8.77618 0.625183 8.14618 0.886139 7.68167 1.35064C7.21717 1.81515 6.95621 2.44515 6.95621 3.10206C6.95621 3.75897 7.21717 4.38897 7.68167 4.85347C8.14618 5.31798 8.77618 5.57893 9.43309 5.57893Z" fill="#989898"/>
<path fill-rule="evenodd" clip-rule="evenodd" d="M4.65769 10.5327C4.53529 10.2749 4.47425 9.99235 4.47935 9.70707C4.47935 8.58834 5.04078 7.4366 6.07776 6.63574C5.56017 6.47626 5.02092 6.39827 4.47935 6.40457C1.17685 6.40457 0.351227 8.88144 0.351227 9.70707C0.351227 10.5327 1.17685 10.5327 1.17685 10.5327H4.65769Z" fill="#989898"/>
<path d="M4.06653 5.57895C4.61396 5.57895 5.13896 5.36149 5.52605 4.9744C5.91313 4.58732 6.1306 4.06231 6.1306 3.51489C6.1306 2.96747 5.91313 2.44247 5.52605 2.05538C5.13896 1.66829 4.61396 1.45083 4.06653 1.45083C3.51911 1.45083 2.99411 1.66829 2.60702 2.05538C2.21994 2.44247 2.00247 2.96747 2.00247 3.51489C2.00247 4.06231 2.21994 4.58732 2.60702 4.9744C2.99411 5.36149 3.51911 5.57895 4.06653 5.57895Z" fill="#989898"/>
</svg>
