<svg width="14" height="13" viewBox="0 0 14 13" fill="none" xmlns="http://www.w3.org/2000/svg">
<path d="M7.98467 8.23022C7.90303 8.23022 7.82321 8.25444 7.75533 8.2998C7.68744 8.34516 7.63453 8.40963 7.60328 8.48506C7.57204 8.56049 7.56386 8.6435 7.57979 8.72357C7.59572 8.80365 7.63504 8.87721 7.69277 8.93494C7.7505 8.99267 7.82406 9.03199 7.90414 9.04792C7.98421 9.06385 8.06722 9.05567 8.14265 9.02443C8.21808 8.99318 8.28255 8.94027 8.32791 8.87238C8.37327 8.8045 8.39749 8.72468 8.39749 8.64304C8.39749 8.53355 8.35399 8.42855 8.27658 8.35113C8.19916 8.27372 8.09416 8.23022 7.98467 8.23022ZM8.8103 5.75335C8.72865 5.75335 8.64884 5.77756 8.58095 5.82292C8.51306 5.86828 8.46015 5.93275 8.42891 6.00819C8.39766 6.08362 8.38949 6.16662 8.40542 6.2467C8.42135 6.32678 8.46066 6.40033 8.5184 6.45807C8.57613 6.5158 8.64968 6.55511 8.72976 6.57104C8.80984 6.58697 8.89284 6.5788 8.96827 6.54755C9.04371 6.51631 9.10818 6.4634 9.15354 6.39551C9.1989 6.32762 9.22311 6.24781 9.22311 6.16616C9.22311 6.05668 9.17962 5.95168 9.1022 5.87426C9.02478 5.79684 8.91978 5.75335 8.8103 5.75335ZM9.63592 7.4046C9.71757 7.4046 9.79738 7.38039 9.86527 7.33503C9.93316 7.28967 9.98607 7.2252 10.0173 7.14976C10.0486 7.07433 10.0567 6.99133 10.0408 6.91125C10.0249 6.83117 9.98556 6.75762 9.92783 6.69988C9.87009 6.64215 9.79654 6.60284 9.71646 6.58691C9.63638 6.57098 9.55338 6.57915 9.47795 6.6104C9.40252 6.64164 9.33804 6.69455 9.29268 6.76244C9.24732 6.83033 9.22311 6.91014 9.22311 6.99179C9.22311 7.10127 9.2666 7.20627 9.34402 7.28369C9.42144 7.36111 9.52644 7.4046 9.63592 7.4046ZM8.8103 8.23022C8.89194 8.23022 8.97176 8.20601 9.03964 8.16065C9.10753 8.11529 9.16044 8.05082 9.19169 7.97539C9.22293 7.89996 9.23111 7.81695 9.21518 7.73688C9.19925 7.6568 9.15993 7.58324 9.1022 7.52551C9.04447 7.46778 8.97091 7.42846 8.89083 7.41253C8.81076 7.3966 8.72775 7.40478 8.65232 7.43602C8.57689 7.46727 8.51242 7.52018 8.46706 7.58807C8.4217 7.65595 8.39749 7.73577 8.39749 7.81741C8.39749 7.9269 8.44098 8.0319 8.5184 8.10932C8.59581 8.18673 8.70081 8.23022 8.8103 8.23022ZM7.98467 6.57898C7.90303 6.57898 7.82321 6.60319 7.75533 6.64855C7.68744 6.69391 7.63453 6.75838 7.60328 6.83381C7.57204 6.90924 7.56386 6.99225 7.57979 7.07232C7.59572 7.1524 7.63504 7.22596 7.69277 7.28369C7.7505 7.34142 7.82406 7.38074 7.90414 7.39667C7.98421 7.4126 8.06722 7.40442 8.14265 7.37318C8.21808 7.34193 8.28255 7.28902 8.32791 7.22113C8.37327 7.15325 8.39749 7.07343 8.39749 6.99179C8.39749 6.8823 8.35399 6.7773 8.27658 6.69988C8.19916 6.62247 8.09416 6.57898 7.98467 6.57898ZM11.2872 5.75335C11.3688 5.75335 11.4486 5.72914 11.5165 5.68378C11.5844 5.63842 11.6373 5.57395 11.6686 5.49851C11.6998 5.42308 11.708 5.34008 11.6921 5.26C11.6761 5.17992 11.6368 5.10637 11.5791 5.04864C11.5213 4.9909 11.4478 4.95159 11.3677 4.93566C11.2876 4.91973 11.2046 4.9279 11.1292 4.95915C11.0538 4.99039 10.9893 5.0433 10.9439 5.11119C10.8986 5.17908 10.8744 5.25889 10.8744 5.34054C10.8744 5.45002 10.9179 5.55502 10.9953 5.63244C11.0727 5.70986 11.1777 5.75335 11.2872 5.75335ZM10.0487 6.16616C10.0487 6.24781 10.0729 6.32762 10.1183 6.39551C10.1637 6.4634 10.2281 6.51631 10.3036 6.54755C10.379 6.5788 10.462 6.58697 10.5421 6.57104C10.6222 6.55511 10.6957 6.5158 10.7535 6.45807C10.8112 6.40033 10.8505 6.32678 10.8664 6.2467C10.8824 6.16662 10.8742 6.08362 10.8429 6.00819C10.8117 5.93275 10.7588 5.86828 10.6909 5.82292C10.623 5.77756 10.5432 5.75335 10.4615 5.75335C10.3521 5.75335 10.2471 5.79684 10.1696 5.87426C10.0922 5.95168 10.0487 6.05668 10.0487 6.16616ZM9.63592 4.92773C9.55428 4.92773 9.47446 4.95194 9.40658 4.9973C9.33869 5.04266 9.28578 5.10713 9.25453 5.18256C9.22329 5.25799 9.21511 5.341 9.23104 5.42107C9.24697 5.50115 9.28629 5.57471 9.34402 5.63244C9.40175 5.69017 9.47531 5.72949 9.55539 5.74542C9.63546 5.76135 9.71847 5.75317 9.7939 5.72193C9.86933 5.69068 9.9338 5.63777 9.97916 5.56988C10.0245 5.502 10.0487 5.42218 10.0487 5.34054C10.0487 5.23105 10.0052 5.12605 9.92783 5.04864C9.85041 4.97122 9.74541 4.92773 9.63592 4.92773ZM12.1128 5.75335C12.0312 5.75335 11.9513 5.77756 11.8835 5.82292C11.8156 5.86828 11.7627 5.93275 11.7314 6.00819C11.7002 6.08362 11.692 6.16662 11.7079 6.2467C11.7238 6.32678 11.7632 6.40033 11.8209 6.45807C11.8786 6.5158 11.9522 6.55511 12.0323 6.57104C12.1123 6.58697 12.1953 6.5788 12.2708 6.54755C12.3462 6.51631 12.4107 6.4634 12.456 6.39551C12.5014 6.32762 12.5256 6.24781 12.5256 6.16616C12.5256 6.05668 12.4821 5.95168 12.4047 5.87426C12.3273 5.79684 12.2223 5.75335 12.1128 5.75335ZM12.9384 4.92773C12.8568 4.92773 12.777 4.95194 12.7091 4.9973C12.6412 5.04266 12.5883 5.10713 12.557 5.18256C12.5258 5.25799 12.5176 5.341 12.5335 5.42107C12.5495 5.50115 12.5888 5.57471 12.6465 5.63244C12.7043 5.69017 12.7778 5.72949 12.8579 5.74542C12.938 5.76135 13.021 5.75317 13.0964 5.72193C13.1718 5.69068 13.2363 5.63777 13.2817 5.56988C13.327 5.502 13.3512 5.42218 13.3512 5.34054C13.3512 5.23105 13.3077 5.12605 13.2303 5.04864C13.1529 4.97122 13.0479 4.92773 12.9384 4.92773ZM11.2872 6.57898C11.2055 6.57898 11.1257 6.60319 11.0578 6.64855C10.9899 6.69391 10.937 6.75838 10.9058 6.83381C10.8745 6.90924 10.8664 6.99225 10.8823 7.07232C10.8982 7.1524 10.9375 7.22596 10.9953 7.28369C11.053 7.34142 11.1266 7.38074 11.2066 7.39667C11.2867 7.4126 11.3697 7.40442 11.4451 7.37318C11.5206 7.34193 11.5851 7.28902 11.6304 7.22113C11.6758 7.15325 11.7 7.07343 11.7 6.99179C11.7 6.8823 11.6565 6.7773 11.5791 6.69988C11.5017 6.62247 11.3967 6.57898 11.2872 6.57898ZM10.4615 7.4046C10.3799 7.4046 10.3001 7.42881 10.2322 7.47417C10.1643 7.51953 10.1114 7.584 10.0802 7.65944C10.0489 7.73487 10.0407 7.81787 10.0567 7.89795C10.0726 7.97803 10.1119 8.05158 10.1696 8.10932C10.2274 8.16705 10.3009 8.20636 10.381 8.22229C10.4611 8.23822 10.5441 8.23005 10.6195 8.1988C10.695 8.16756 10.7594 8.11465 10.8048 8.04676C10.8502 7.97887 10.8744 7.89906 10.8744 7.81741C10.8744 7.70793 10.8309 7.60293 10.7535 7.52551C10.676 7.44809 10.571 7.4046 10.4615 7.4046ZM8.8103 9.05585C8.72865 9.05585 8.64884 9.08006 8.58095 9.12542C8.51306 9.17078 8.46015 9.23525 8.42891 9.31069C8.39766 9.38612 8.38949 9.46912 8.40542 9.5492C8.42135 9.62928 8.46066 9.70283 8.5184 9.76056C8.57613 9.8183 8.64968 9.85761 8.72976 9.87354C8.80984 9.88947 8.89284 9.8813 8.96827 9.85005C9.04371 9.81881 9.10818 9.7659 9.15354 9.69801C9.1989 9.63012 9.22311 9.55031 9.22311 9.46866C9.22311 9.35918 9.17962 9.25418 9.1022 9.17676C9.02478 9.09934 8.91978 9.05585 8.8103 9.05585ZM7.98467 9.88147C7.90303 9.88147 7.82321 9.90569 7.75533 9.95105C7.68744 9.99641 7.63453 10.0609 7.60328 10.1363C7.57204 10.2117 7.56386 10.2947 7.57979 10.3748C7.59572 10.4549 7.63504 10.5285 7.69277 10.5862C7.7505 10.6439 7.82406 10.6832 7.90414 10.6992C7.98421 10.7151 8.06722 10.7069 8.14265 10.6757C8.21808 10.6444 8.28255 10.5915 8.32791 10.5236C8.37327 10.4557 8.39749 10.3759 8.39749 10.2943C8.39749 10.1848 8.35399 10.0798 8.27658 10.0024C8.19916 9.92497 8.09416 9.88147 7.98467 9.88147ZM9.63592 8.23022C9.55428 8.23022 9.47446 8.25444 9.40658 8.2998C9.33869 8.34516 9.28578 8.40963 9.25453 8.48506C9.22329 8.56049 9.21511 8.6435 9.23104 8.72357C9.24697 8.80365 9.28629 8.87721 9.34402 8.93494C9.40175 8.99267 9.47531 9.03199 9.55539 9.04792C9.63546 9.06385 9.71847 9.05567 9.7939 9.02443C9.86933 8.99318 9.9338 8.94027 9.97916 8.87238C10.0245 8.8045 10.0487 8.72468 10.0487 8.64304C10.0487 8.53355 10.0052 8.42855 9.92783 8.35113C9.85041 8.27372 9.74541 8.23022 9.63592 8.23022ZM10.1945 2.59662L9.90296 2.30482C9.86463 2.26647 9.81911 2.23606 9.76902 2.21531C9.71893 2.19456 9.66524 2.18387 9.61102 2.18387C9.55681 2.18387 9.50312 2.19456 9.45303 2.21531C9.40294 2.23606 9.35742 2.26647 9.31909 2.30482L9.1728 2.45085C8.63605 1.92182 7.91269 1.62524 7.15905 1.62523C6.66264 1.62523 6.20235 1.76197 5.79419 1.98257L5.53618 1.72456C4.95065 1.1363 4.15607 0.803754 3.32608 0.799601C1.57292 0.7867 0.141235 2.37113 0.141235 4.12403V11.9455C0.141235 12.055 0.184728 12.16 0.262145 12.2374C0.339563 12.3149 0.444563 12.3583 0.554048 12.3583H1.37967C1.48916 12.3583 1.59416 12.3149 1.67158 12.2374C1.74899 12.16 1.79249 12.055 1.79249 11.9455V4.06082C1.79249 3.28293 2.3343 2.55921 3.10833 2.46298C3.33765 2.43293 3.57081 2.4561 3.78974 2.53069C4.00866 2.60527 4.20747 2.72927 4.37076 2.89308L4.62877 3.15108C4.4061 3.55822 4.26936 4.01851 4.26936 4.51491C4.26949 5.26853 4.56605 5.99186 5.09499 6.52866L4.94895 6.67495C4.87159 6.75236 4.82814 6.85732 4.82814 6.96676C4.82814 7.0762 4.87159 7.18116 4.94895 7.25857L5.2405 7.55037C5.27884 7.58872 5.32435 7.61913 5.37444 7.63988C5.42453 7.66064 5.47822 7.67132 5.53244 7.67132C5.58666 7.67132 5.64035 7.66064 5.69044 7.63988C5.74053 7.61913 5.78604 7.58872 5.82437 7.55037L10.1945 3.1805C10.2329 3.14216 10.2633 3.09665 10.284 3.04656C10.3048 2.99647 10.3155 2.94278 10.3155 2.88856C10.3155 2.83434 10.3048 2.78065 10.284 2.73056C10.2633 2.68047 10.2329 2.63496 10.1945 2.59662Z" fill="#989898"/>
</svg>
