<svg width="25" height="25" viewBox="0 0 25 25" fill="none" xmlns="http://www.w3.org/2000/svg">
<g clip-path="url(#clip0_742_921)">
<path d="M23.0856 5.89171C22.2904 6.24348 21.447 6.4745 20.5835 6.57713C21.4937 6.03279 22.1749 5.1761 22.5002 4.16671C21.646 4.67505 20.7096 5.0313 19.7335 5.224C19.0779 4.52252 18.2089 4.0573 17.2616 3.90065C16.3143 3.74401 15.3418 3.90472 14.4953 4.35781C13.6487 4.81089 12.9756 5.53097 12.5805 6.40608C12.1855 7.28119 12.0906 8.26232 12.3106 9.19692C10.5784 9.1101 8.88389 8.65997 7.33697 7.87574C5.79004 7.09151 4.42534 5.99072 3.33146 4.64484C2.94426 5.30989 2.74079 6.06591 2.74187 6.83546C2.74187 8.34588 3.51062 9.68025 4.67937 10.4615C3.98772 10.4397 3.31128 10.2529 2.70646 9.91671V9.97088C2.70667 10.9768 3.05476 11.9517 3.69172 12.7303C4.32867 13.5089 5.21529 14.0432 6.20125 14.2428C5.55918 14.4168 4.88594 14.4424 4.2325 14.3178C4.51049 15.1836 5.0523 15.9409 5.78207 16.4835C6.51185 17.0261 7.39305 17.3269 8.30229 17.3438C7.39863 18.0535 6.36393 18.5782 5.25738 18.8877C4.15082 19.1973 2.99409 19.2857 1.85333 19.148C3.84468 20.4286 6.16281 21.1085 8.53042 21.1063C16.544 21.1063 20.9263 14.4678 20.9263 8.71046C20.9263 8.52296 20.921 8.33338 20.9127 8.14796C21.7657 7.53147 22.5019 6.76777 23.0867 5.89275L23.0856 5.89171Z" fill="url(#paint0_linear_742_921)"/>
</g>
<defs>
<linearGradient id="paint0_linear_742_921" x1="1.85333" y1="3.84229" x2="21.7239" y2="22.5535" gradientUnits="userSpaceOnUse">
<stop stop-color="white"/>
<stop offset="1" stop-color="#BFBFBF"/>
</linearGradient>
<clipPath id="clip0_742_921">
<rect width="25" height="25" fill="white"/>
</clipPath>
</defs>
</svg>
