<svg width="25" height="25" viewBox="0 0 25 25" fill="none" xmlns="http://www.w3.org/2000/svg">
<path d="M21 7.12509C18 2.50009 11.875 1.12509 7.12503 4.00009C2.50003 6.87509 1.00003 13.1251 4.00003 17.7501L4.25003 18.1251L3.25003 21.8751L7.00003 20.8751L7.37503 21.1251C9.00003 22.0001 10.75 22.5001 12.5 22.5001C14.375 22.5001 16.25 22.0001 17.875 21.0001C22.5 18.0001 23.875 11.8751 21 7.12509ZM18.375 16.7501C17.875 17.5001 17.25 18.0001 16.375 18.1251C15.875 18.1251 15.25 18.3751 12.75 17.3751C10.625 16.3751 8.87503 14.7501 7.62503 12.8751C6.87503 12.0001 6.50003 10.8751 6.37503 9.75009C6.37503 8.75009 6.75003 7.87509 7.37503 7.25009C7.62503 7.00009 7.87503 6.87509 8.12503 6.87509H8.75003C9.00003 6.87509 9.25003 6.87509 9.37503 7.37509C9.62503 8.00009 10.25 9.50009 10.25 9.62509C10.375 9.75009 10.375 10.0001 10.25 10.1251C10.375 10.3751 10.25 10.6251 10.125 10.7501C10 10.8751 9.87503 11.1251 9.75003 11.2501C9.50003 11.3751 9.37503 11.6251 9.50003 11.8751C10 12.6251 10.625 13.3751 11.25 14.0001C12 14.6251 12.75 15.1251 13.625 15.5001C13.875 15.6251 14.125 15.6251 14.25 15.3751C14.375 15.1251 15 14.5001 15.25 14.2501C15.5 14.0001 15.625 14.0001 15.875 14.1251L17.875 15.1251C18.125 15.2501 18.375 15.3751 18.5 15.5001C18.625 15.8751 18.625 16.3751 18.375 16.7501Z" fill="#E0E0E0"/>
</svg>
